<svg width="54" height="33" xmlns="http://www.w3.org/2000/svg" xmlns:xlink="http://www.w3.org/1999/xlink"><defs><rect id="a" x="0" y="0" width="54" height="33" rx="4"/><mask id="b" maskContentUnits="userSpaceOnUse" maskUnits="objectBoundingBox" x="0" y="0" width="54" height="33" fill="#fff"><use xlink:href="#a"/></mask></defs><g fill="none" fill-rule="evenodd"><use stroke="#E4E4E4" mask="url(#b)" stroke-width="2" fill="#F3F3F3" xlink:href="#a"/><g fill="#979797"><path d="M18.998 3H37v9.999c-.668.011-1.337.001-2.005.005V16H17V4.999h1.998V3Zm1.001 1v.996h11.089C32.389 5 33.69 5 34.993 5c0 2.333.003 4.667.002 7h.997c.002-2.666 0-5.332.002-7.998-1.052-.005-2.104 0-3.155-.002h-12.84Zm-2 2L18 7.83A3.042 3.042 0 0 0 19.829 6h-1.83Zm2.872.001A4 4 0 0 1 18 8.874v3.252A4.011 4.011 0 0 1 20.873 15H31.12a4.005 4.005 0 0 1 2.872-2.874V8.874a4.015 4.015 0 0 1-2.87-2.872c-3.418-.003-6.835-.002-10.252 0ZM32.165 6c.296.84.986 1.535 1.828 1.827V6h-1.828ZM18 15h1.829A3.049 3.049 0 0 0 18 13.17V15Zm14.164 0h1.83v-1.826A3.026 3.026 0 0 0 32.163 15Z"/><path d="M25.684 7.02a2.644 2.644 0 0 1 1.727.394c.579.36 1.01.922 1.277 1.543.41.976.41 2.117-.002 3.092-.174.4-.412.773-.716 1.085a2.858 2.858 0 0 1-1.325.783 2.61 2.61 0 0 1-1.656-.12 3.054 3.054 0 0 1-1.35-1.139c-.827-1.225-.855-2.932-.082-4.189.328-.541.81-.998 1.395-1.25a2.66 2.66 0 0 1 .732-.2Zm.085.997a1.819 1.819 0 0 0-.95.47c-.365.335-.61.79-.73 1.269a3.053 3.053 0 0 0 .156 1.943c.18.406.462.773.836 1.017.296.194.652.304 1.008.28.428-.024.832-.233 1.135-.531.404-.395.648-.934.734-1.488a3.007 3.007 0 0 0-.29-1.84 2.216 2.216 0 0 0-.88-.927 1.62 1.62 0 0 0-1.019-.193Z"/></g><g fill="#F2F2F2"><path d="M20 4h12.839c1.051.002 2.103-.003 3.155.002-.003 2.666 0 5.332-.002 7.998h-.997c.001-2.333-.003-4.667-.002-7-1.302 0-2.604 0-3.905-.005H19.999V4Zm-2 2h1.829A3.042 3.042 0 0 1 18 7.83V6Z"/><path d="M20.871 6.001c3.417-.001 6.834-.002 10.251 0a4 4 0 0 0 2.871 2.873v3.252A4.008 4.008 0 0 0 31.121 15H20.873A4.015 4.015 0 0 0 18 12.126V8.874A4.011 4.011 0 0 0 20.87 6Zm4.813 1.019c-.252.03-.5.098-.732.199-.585.252-1.067.709-1.395 1.25-.773 1.257-.745 2.964.081 4.19.33.495.797.908 1.35 1.138a2.61 2.61 0 0 0 1.657.12 2.856 2.856 0 0 0 1.325-.783c.304-.312.542-.685.716-1.085a4.036 4.036 0 0 0 .002-3.092c-.266-.621-.698-1.183-1.277-1.543a2.644 2.644 0 0 0-1.727-.394ZM32.165 6h1.828v1.827A3.023 3.023 0 0 1 32.165 6Z"/><path d="M25.769 8.017a1.62 1.62 0 0 1 1.02.193c.38.208.68.545.88.927.294.56.384 1.217.289 1.84-.086.554-.33 1.093-.734 1.488-.303.298-.707.507-1.135.532a1.666 1.666 0 0 1-1.008-.28 2.328 2.328 0 0 1-.836-1.018 3.053 3.053 0 0 1-.156-1.943c.12-.479.365-.934.73-1.27.263-.242.595-.415.95-.47ZM18 15v-1.83A3.05 3.05 0 0 1 19.829 15h-1.83Zm14.164 0a3.026 3.026 0 0 1 1.83-1.826V15h-1.83Z"/></g><path d="M9.243 28v-5.63h2.044v-.711H6.409v.712h2.043V28h.791Zm4.056 0v-6.341h-.79V28h.79Zm5.546-.712h-3.137v-2.18h2.975v-.703h-2.975v-2.034h3.137v-.712h-3.928V28h3.928v-.712Zm-2.39-7.233-1.292 1.024h.975l.712-.594h.07l.712.594h.976l-1.292-1.024h-.861Zm2.337-.198-.966-1.064h-.95l1.082 1.064h.834ZM21.06 28v-4.917h.07L24.571 28h.77v-6.341h-.783v4.935h-.07l-3.441-4.935h-.77V28h.783Zm14.687 0v-6.341h-.919l-2.17 5.247h-.071l-2.171-5.247h-.918V28h.738v-4.843h.053l2 4.8h.667l2-4.8h.052V28h.739Zm5.739 0h.83l-2.337-6.341h-.783L36.858 28h.831l.637-1.815h2.523l.096.275a330.846 330.846 0 0 1 .444 1.265l.097.275Zm-1.934-5.317h.07l.994 2.83h-2.057l.101-.286c.068-.19.15-.426.248-.707l.295-.844c.098-.281.18-.517.248-.708l.101-.285Zm-1.564-2.914c0 .393.143.709.428.95.286.24.676.36 1.171.36.498 0 .89-.12 1.174-.36.284-.241.426-.557.426-.95h-.677a.686.686 0 0 1-.246.554c-.164.137-.39.206-.677.206-.284 0-.509-.069-.674-.206a.683.683 0 0 1-.248-.554h-.677Zm1.6 9.998a.512.512 0 0 0 .375-.156.512.512 0 0 0 .156-.376.512.512 0 0 0-.156-.376.512.512 0 0 0-.376-.156.512.512 0 0 0-.375.156.512.512 0 0 0-.156.376c0 .146.052.272.156.376a.511.511 0 0 0 .375.156ZM45.867 28v-5.63h2.043v-.711h-4.878v.712h2.043V28h.791Z" fill="#333"/></g></svg>