<svg width="60" height="40" viewBox="0 0 60 40" fill="none" xmlns="http://www.w3.org/2000/svg"><path d="M55.5556 0H4.44444C1.98985 0 0 2.17074 0 4.84848V35.1515C0 37.8293 1.98985 40 4.44444 40H55.5556C58.0102 40 60 37.8293 60 35.1515V4.84848C60 2.17074 58.0102 0 55.5556 0Z" fill="white"/><path d="M58.8889 6H1.11108V10H58.8889V6Z" fill="#D4D4D4"/><path d="M10.8544 16.1818V22H10.1499V16.1818H10.8544ZM16.8807 16.1818V22H16.1989L13.0284 17.4318H12.9716V22H12.267V16.1818H12.9489L16.1307 20.7614H16.1875V16.1818H16.8807ZM17.9723 16.8068V16.1818H22.3359V16.8068H20.5064V22H19.8018V16.8068H17.9723ZM23.4233 22V16.1818H26.9347V16.8068H24.1278V18.7727H26.7528V19.3977H24.1278V21.375H26.9801V22H23.4233ZM28.2045 22V16.1818H30.1705C30.625 16.1818 30.9981 16.2595 31.2898 16.4148C31.5814 16.5682 31.7973 16.7794 31.9375 17.0483C32.0777 17.3172 32.1477 17.6231 32.1477 17.9659C32.1477 18.3087 32.0777 18.6127 31.9375 18.8778C31.7973 19.143 31.5824 19.3513 31.2926 19.5028C31.0028 19.6525 30.6326 19.7273 30.1818 19.7273H28.5909V19.0909H30.1591C30.4697 19.0909 30.7197 19.0455 30.9091 18.9545C31.1004 18.8636 31.2386 18.7348 31.3239 18.5682C31.411 18.3996 31.4545 18.1989 31.4545 17.9659C31.4545 17.733 31.411 17.5294 31.3239 17.3551C31.2367 17.1809 31.0975 17.0464 30.9062 16.9517C30.715 16.8551 30.4621 16.8068 30.1477 16.8068H28.9091V22H28.2045ZM30.9432 19.3864L32.375 22H31.5568L30.1477 19.3864H30.9432ZM37.9354 16.1818V22H37.2536L34.0831 17.4318H34.0263V22H33.3217V16.1818H34.0036L37.1854 20.7614H37.2422V16.1818H37.9354ZM39.3452 22V16.1818H42.8565V16.8068H40.0497V18.7727H42.6747V19.3977H40.0497V21.375H42.902V22H39.3452ZM43.8082 16.8068V16.1818H48.1719V16.8068H46.3423V22H45.6378V16.8068H43.8082ZM11.7358 32V26.1818H13.7699C14.1752 26.1818 14.5095 26.2519 14.7727 26.392C15.036 26.5303 15.232 26.7169 15.3608 26.9517C15.4896 27.1847 15.554 27.4432 15.554 27.7273C15.554 27.9773 15.5095 28.1837 15.4205 28.3466C15.3333 28.5095 15.2178 28.6383 15.0739 28.733C14.9318 28.8277 14.7775 28.8977 14.6108 28.9432V29C14.7888 29.0114 14.9678 29.0739 15.1477 29.1875C15.3277 29.3011 15.4782 29.464 15.5994 29.6761C15.7206 29.8883 15.7812 30.1477 15.7812 30.4545C15.7812 30.7462 15.715 31.0085 15.5824 31.2415C15.4498 31.4744 15.2405 31.6591 14.9545 31.7955C14.6686 31.9318 14.2964 32 13.8381 32H11.7358ZM12.4403 31.375H13.8381C14.2983 31.375 14.625 31.286 14.8182 31.108C15.0133 30.928 15.1108 30.7102 15.1108 30.4545C15.1108 30.2576 15.0606 30.0758 14.9602 29.9091C14.8598 29.7405 14.7169 29.6061 14.5312 29.5057C14.3456 29.4034 14.1259 29.3523 13.8722 29.3523H12.4403V31.375ZM12.4403 28.7386H13.7472C13.9593 28.7386 14.1506 28.697 14.321 28.6136C14.4934 28.5303 14.6297 28.4129 14.7301 28.2614C14.8324 28.1098 14.8835 27.9318 14.8835 27.7273C14.8835 27.4716 14.7945 27.2547 14.6165 27.0767C14.4384 26.8968 14.1563 26.8068 13.7699 26.8068H12.4403V28.7386ZM17.1776 32H16.4389L18.5753 26.1818H19.3026L21.4389 32H20.7003L18.9616 27.1023H18.9162L17.1776 32ZM17.4503 29.7273H20.4276V30.3523H17.4503V29.7273ZM26.9588 26.1818V32H26.277L23.1065 27.4318H23.0497V32H22.3452V26.1818H23.027L26.2088 30.7614H26.2656V26.1818H26.9588ZM28.3686 32V26.1818H29.0732V29.0682H29.1413L31.755 26.1818H32.6754L30.2322 28.8068L32.6754 32H31.8232L29.8004 29.2955L29.0732 30.1136V32H28.3686ZM34.2919 26.1818V32H33.5874V26.1818H34.2919ZM40.3182 26.1818V32H39.6364L36.4659 27.4318H36.4091V32H35.7045V26.1818H36.3864L39.5682 30.7614H39.625V26.1818H40.3182ZM45.7053 28C45.6428 27.8087 45.5604 27.6373 45.4581 27.4858C45.3577 27.3324 45.2375 27.2017 45.0973 27.0938C44.959 26.9858 44.8018 26.9034 44.6257 26.8466C44.4496 26.7898 44.2564 26.7614 44.0462 26.7614C43.7015 26.7614 43.388 26.8504 43.1058 27.0284C42.8236 27.2064 42.5992 27.4688 42.4325 27.8153C42.2659 28.1619 42.1825 28.5871 42.1825 29.0909C42.1825 29.5947 42.2668 30.0199 42.4354 30.3665C42.6039 30.7131 42.8321 30.9754 43.12 31.1534C43.4079 31.3314 43.7318 31.4205 44.0916 31.4205C44.425 31.4205 44.7185 31.3494 44.9723 31.2074C45.228 31.0634 45.4268 30.8608 45.5689 30.5994C45.7128 30.3362 45.7848 30.0265 45.7848 29.6705L46.0007 29.7159H44.2507V29.0909H46.4666V29.7159C46.4666 30.1951 46.3643 30.6117 46.1598 30.9659C45.9571 31.3201 45.6768 31.5947 45.3189 31.7898C44.9628 31.983 44.5537 32.0795 44.0916 32.0795C43.5765 32.0795 43.1238 31.9583 42.7337 31.7159C42.3454 31.4735 42.0424 31.1288 41.8246 30.6818C41.6087 30.2348 41.5007 29.7045 41.5007 29.0909C41.5007 28.6307 41.5623 28.2169 41.6854 27.8494C41.8104 27.4801 41.9865 27.1657 42.2138 26.9062C42.4411 26.6468 42.71 26.4479 43.0206 26.3097C43.3312 26.1714 43.6731 26.1023 44.0462 26.1023C44.353 26.1023 44.639 26.1487 44.9041 26.2415C45.1712 26.3324 45.4089 26.4621 45.6172 26.6307C45.8274 26.7973 46.0026 26.9972 46.1428 27.2301C46.2829 27.4612 46.3795 27.7178 46.4325 28H45.7053Z" fill="#333333"/></svg>