<svg width="60" height="40" viewBox="0 0 60 40" fill="none" xmlns="http://www.w3.org/2000/svg"><path d="M55.5556 0H4.44444C1.98985 0 0 2.17074 0 4.84848V35.1515C0 37.8293 1.98985 40 4.44444 40H55.5556C58.0102 40 60 37.8293 60 35.1515V4.84848C60 2.17074 58.0102 0 55.5556 0Z" fill="white"/><path fill-rule="evenodd" clip-rule="evenodd" d="M21.998 7H40V16.9986C39.332 17.0103 38.6632 17.0001 37.9949 17.0037V20H20V8.99875H21.998V7ZM22.9992 7.99988C22.9985 8.33174 22.999 8.66385 22.999 8.9957C26.6952 8.99469 30.3914 8.99545 34.0878 8.9952C35.3893 9.00002 36.6911 9.00078 37.9929 9.00027C37.9924 11.3334 37.9962 13.6666 37.9949 15.9997C38.3274 16.0002 38.6599 16.0002 38.9924 15.9997C38.9937 13.3339 38.9911 10.6682 38.9937 8.00242C37.9421 7.99684 36.8904 8.00166 35.8388 7.99988C31.5589 7.99988 27.2789 8.00014 22.9992 7.99988ZM20.9995 10.0004C21 10.6098 20.9992 11.2194 21 11.829C21.8421 11.5327 22.5302 10.8413 22.8289 10.0004C22.2193 9.99965 21.6094 9.9999 20.9995 10.0004ZM23.8713 10.0012C23.7063 10.6438 23.3766 11.2425 22.9241 11.7272C22.4086 12.282 21.7327 12.6847 20.9997 12.8739C20.9997 13.958 20.999 15.042 21 16.1262C21.635 16.2909 22.2282 16.6139 22.7096 17.0595C23.2728 17.577 23.6812 18.2592 23.8726 18.9996C27.2886 19.0001 30.7046 19.0004 34.1208 18.9996C34.284 18.3692 34.603 17.7798 35.0437 17.3005C35.5619 16.7312 36.248 16.3186 36.9931 16.1262C36.9937 15.0422 36.9934 13.9583 36.9934 12.8744C36.4294 12.7269 35.8977 12.4575 35.449 12.085C34.8025 11.553 34.3289 10.8134 34.1221 10.0017C30.7051 9.99863 27.2883 9.99965 23.8713 10.0012ZM35.165 9.9999C35.4614 10.8408 36.1505 11.5345 36.9934 11.8273C36.9934 11.2184 36.9931 10.6093 36.9934 10.0004C36.384 9.99939 35.7744 10.0004 35.165 9.9999ZM20.9997 18.9999C21.6094 18.9996 22.219 19.0011 22.8289 18.9991C22.5305 18.1577 21.8414 17.4683 21.0003 17.17C20.999 17.7801 20.9997 18.39 20.9997 18.9999ZM35.164 18.9999C35.7739 19.0001 36.3835 19.0001 36.9931 18.9996C36.9934 18.391 36.9934 17.7821 36.9931 17.1735C36.1495 17.4645 35.4629 18.1604 35.164 18.9999Z" fill="#ED1B2E"/><path fill-rule="evenodd" clip-rule="evenodd" d="M28.6838 11.0196C29.2827 10.9442 29.9023 11.0917 30.4114 11.4139C30.9896 11.7737 31.4216 12.3359 31.6883 12.9569C32.0982 13.9329 32.0972 15.0742 31.6858 16.0495C31.5122 16.4489 31.2736 16.8216 30.9698 17.1344C30.6079 17.5062 30.149 17.7885 29.6447 17.9172C29.099 18.0592 28.5081 18.0152 27.9886 17.7966C27.4353 17.5673 26.9688 17.1545 26.6383 16.6581C25.8124 15.433 25.7843 13.7263 26.5568 12.4692C26.8853 11.9278 27.3673 11.4713 27.9518 11.2189C28.1845 11.1179 28.4317 11.0501 28.6838 11.0196ZM28.769 12.017C28.4137 12.0708 28.0825 12.2442 27.8195 12.4869C27.4536 12.8224 27.2091 13.2771 27.0891 13.756C26.931 14.3973 26.9784 15.0925 27.2447 15.6986C27.4241 16.1046 27.7066 16.4725 28.081 16.7163C28.3772 16.9097 28.7332 17.0199 29.0886 16.9968C29.5173 16.9719 29.9213 16.7635 30.2244 16.4649C30.6279 16.0701 30.8721 15.531 30.9576 14.977C31.0525 14.3539 30.9632 13.6968 30.6688 13.1367C30.4683 12.7553 30.169 12.4181 29.7886 12.2102C29.4805 12.0401 29.1185 11.9634 28.769 12.017Z" fill="#ED1B2E"/><path fill-rule="evenodd" clip-rule="evenodd" d="M22.9992 7.99977C27.2789 8.00002 31.5589 7.99977 35.8388 7.99977C36.8904 8.00155 37.9421 7.99672 38.9937 8.00231C38.9911 10.6681 38.9937 13.3338 38.9924 15.9996C38.6599 16.0001 38.3274 16.0001 37.9949 15.9996C37.9962 13.6664 37.9924 11.3333 37.9929 9.00016C36.6911 9.00067 35.3893 8.9999 34.0878 8.99508C30.3914 8.99533 26.6952 8.99457 22.999 8.99559C22.999 8.66373 22.9985 8.33162 22.9992 7.99977Z" fill="white"/><path fill-rule="evenodd" clip-rule="evenodd" d="M20.9995 10.0002C21.6094 9.99973 22.2193 9.99947 22.8289 10.0002C22.5302 10.8412 21.8421 11.5326 21 11.8289C20.9992 11.2192 21 10.6096 20.9995 10.0002Z" fill="white"/><path fill-rule="evenodd" clip-rule="evenodd" d="M23.8713 10.001C27.2883 9.99945 30.7051 9.99844 34.1221 10.0015C34.3289 10.8132 34.8025 11.5529 35.449 12.0848C35.8977 12.4573 36.4294 12.7267 36.9934 12.8742C36.9934 13.9581 36.9937 15.042 36.9931 16.126C36.248 16.3184 35.5619 16.731 35.0437 17.3003C34.603 17.7796 34.284 18.369 34.1208 18.9994C30.7046 19.0002 27.2886 18.9999 23.8726 18.9994C23.6812 18.259 23.2728 17.5768 22.7096 17.0593C22.2282 16.6137 21.635 16.2907 21 16.126C20.999 15.0418 20.9997 13.9579 20.9997 12.8737C21.7327 12.6845 22.4086 12.2818 22.9241 11.727C23.3767 11.2423 23.7063 10.6436 23.8713 10.001ZM28.6838 11.0194C28.4317 11.0499 28.1845 11.1177 27.9518 11.2187C27.3673 11.4711 26.8853 11.9276 26.5569 12.4689C25.7843 13.726 25.8124 15.4328 26.6383 16.6579C26.9688 17.1543 27.4353 17.5671 27.9886 17.7964C28.5081 18.015 29.099 18.0589 29.6447 17.917C30.149 17.7883 30.6079 17.5059 30.9698 17.1342C31.2736 16.8214 31.5122 16.4487 31.6858 16.0493C32.0972 15.074 32.0982 13.9327 31.6883 12.9567C31.4216 12.3356 30.9896 11.7735 30.4114 11.4137C29.9023 11.0915 29.2827 10.944 28.6838 11.0194Z" fill="white"/><path fill-rule="evenodd" clip-rule="evenodd" d="M35.165 9.99976C35.7744 10.0003 36.384 9.99925 36.9934 10.0003C36.9932 10.6091 36.9934 11.2183 36.9934 11.8271C36.1505 11.5344 35.4614 10.8407 35.165 9.99976Z" fill="white"/><path fill-rule="evenodd" clip-rule="evenodd" d="M28.769 12.0169C29.1185 11.9633 29.4805 12.04 29.7886 12.2101C30.169 12.418 30.4683 12.7552 30.6688 13.1366C30.9632 13.6967 31.0525 14.3538 30.9576 14.9769C30.8721 15.5309 30.6279 16.07 30.2244 16.4648C29.9213 16.7634 29.5173 16.9718 29.0886 16.9967C28.7332 17.0198 28.3772 16.9096 28.081 16.7162C27.7066 16.4724 27.4241 16.1045 27.2447 15.6985C26.9784 15.0924 26.931 14.3972 27.0891 13.7559C27.2091 13.277 27.4536 12.8223 27.8195 12.4868C28.0825 12.2441 28.4137 12.0707 28.769 12.0169Z" fill="white"/><path fill-rule="evenodd" clip-rule="evenodd" d="M20.9997 18.9998C20.9997 18.3899 20.999 17.7801 21.0003 17.1699C21.8414 17.4683 22.5305 18.1576 22.8289 18.9991C22.219 19.0011 21.6094 18.9996 20.9997 18.9998Z" fill="white"/><path fill-rule="evenodd" clip-rule="evenodd" d="M35.164 18.9997C35.4629 18.1603 36.1495 17.4643 36.9932 17.1733C36.9934 17.782 36.9934 18.3908 36.9932 18.9994C36.3835 18.9999 35.7739 18.9999 35.164 18.9997Z" fill="white"/><path fill-rule="evenodd" clip-rule="evenodd" d="M12.2432 34V28.3706H14.2866V27.6587H9.40869V28.3706H11.4521V34H12.2432ZM16.2993 34V27.6587H15.5083V34H16.2993ZM21.8452 33.2881H18.7075V31.1084H21.6826V30.4053H18.7075V28.3706H21.8452V27.6587H17.9165V34H21.8452V33.2881ZM19.4546 26.0547L18.1626 27.0786H19.1382L19.8501 26.4854H19.9204L20.6323 27.0786H21.6079L20.3159 26.0547H19.4546ZM21.7925 25.8569L20.8257 24.7935H19.8765L20.9575 25.8569H21.7925ZM24.0601 34V29.0825H24.1304L27.5713 34H28.3403V27.6587H27.5581V32.5938H27.4878L24.0469 27.6587H23.2778V34H24.0601ZM38.7466 34V27.6587H37.8281L35.6572 32.9058H35.5869L33.416 27.6587H32.4976V34H33.2358V29.1572H33.2886L35.2881 33.9561H35.9561L37.9556 29.1572H38.0083V34H38.7466ZM44.4858 34H45.3164L42.9785 27.6587H42.1963L39.8584 34H40.689L41.3262 32.1851H43.8486L43.9453 32.4597C44.0098 32.6428 44.0837 32.8538 44.1672 33.0925C44.2507 33.3313 44.3247 33.5422 44.3892 33.7253L44.4858 34ZM42.5522 28.6826H42.6226L43.6157 31.5127H41.5591L41.6602 31.2271C41.7275 31.0366 41.8103 30.8008 41.9084 30.5195L42.2029 29.6758C42.301 29.3945 42.3838 29.1587 42.4512 28.9683L42.5522 28.6826ZM40.9878 25.769C40.9878 26.1616 41.1306 26.478 41.4163 26.7183C41.7019 26.9585 42.0923 27.0786 42.5874 27.0786C43.0855 27.0786 43.4766 26.9585 43.7607 26.7183C44.0449 26.478 44.187 26.1616 44.187 25.769H43.5103C43.5103 26.0005 43.4282 26.1851 43.2642 26.3228C43.1001 26.4604 42.8745 26.5293 42.5874 26.5293C42.3032 26.5293 42.0784 26.4604 41.9128 26.3228C41.7473 26.1851 41.6646 26.0005 41.6646 25.769H40.9878ZM42.5874 35.7666C42.7339 35.7666 42.8591 35.7146 42.9631 35.6106C43.0671 35.5066 43.1191 35.3813 43.1191 35.2349C43.1191 35.0884 43.0671 34.9631 42.9631 34.8591C42.8591 34.7551 42.7339 34.7031 42.5874 34.7031C42.4409 34.7031 42.3157 34.7551 42.2117 34.8591C42.1077 34.9631 42.0557 35.0884 42.0557 35.2349C42.0557 35.3813 42.1077 35.5066 42.2117 35.6106C42.3157 35.7146 42.4409 35.7666 42.5874 35.7666ZM48.8672 34V28.3706H50.9106V27.6587H46.0327V28.3706H48.0762V34H48.8672Z" fill="#333333"/></svg>